<svg width="564" height="166" viewBox="0 0 564 166" fill="none" xmlns="http://www.w3.org/2000/svg">
<path fill-rule="evenodd" clip-rule="evenodd" d="M51.25 165C79.5546 165 102.5 142.055 102.5 113.75C102.5 85.4458 79.5546 62.5004 51.25 62.5004C22.9454 62.5004 0 85.4458 0 113.75C0 142.055 22.9454 165 51.25 165ZM51.2506 142.222C66.9754 142.222 79.7228 129.475 79.7228 113.75C79.7228 98.0252 66.9754 85.2777 51.2506 85.2777C35.5258 85.2777 22.7784 98.0252 22.7784 113.75C22.7784 129.475 35.5258 142.222 51.2506 142.222Z" fill="white"/>
<path fill-rule="evenodd" clip-rule="evenodd" d="M168.556 165C196.86 165 219.806 142.055 219.806 113.75C219.806 85.4457 196.86 62.5003 168.556 62.5003C140.251 62.5003 117.306 85.4457 117.306 113.75C117.306 142.055 140.251 165 168.556 165ZM168.555 142.222C184.28 142.222 197.028 129.475 197.028 113.75C197.028 98.0252 184.28 85.2777 168.555 85.2777C152.831 85.2777 140.083 98.0252 140.083 113.75C140.083 129.475 152.831 142.222 168.555 142.222Z" fill="white"/>
<path d="M0 34.0553C0 29.637 3.58172 26.0553 8 26.0553H95.6389C100.057 26.0553 103.639 29.637 103.639 34.0553V40.8331C103.639 45.2514 100.057 48.8331 95.6389 48.8331H7.99999C3.58172 48.8331 0 45.2514 0 40.8331V34.0553Z" fill="white"/>
<path d="M115.028 9.00044C115.028 4.58216 118.61 1.00044 123.028 1.00044H137.921C139.865 1.00044 141.743 1.70844 143.203 2.99211L151.627 10.3977C153.087 11.6813 154.965 12.3893 156.909 12.3893H176.786C178.73 12.3893 180.607 11.6813 182.068 10.3977L190.491 2.99211C191.952 1.70844 193.829 1.00044 195.773 1.00044H210.667C215.085 1.00044 218.667 4.58216 218.667 9.00044V15.7782C218.667 20.1965 215.085 23.7782 210.667 23.7782H195.773C193.829 23.7782 191.952 24.4862 190.491 25.7699L182.068 33.1754C180.607 34.4591 178.73 35.1671 176.786 35.1671H156.909C154.965 35.1671 153.087 34.4591 151.627 33.1754L143.203 25.7699C141.743 24.4862 139.865 23.7782 137.921 23.7782H123.028C118.61 23.7782 115.028 20.1965 115.028 15.7782V9.00044Z" fill="white"/>
<path d="M364.488 0.648438L342.984 65.1604C341.832 68.1044 339.784 69.5764 336.84 69.5764C333.768 69.5764 331.656 68.1044 330.504 65.1604L309.288 0.648438H323.112L336.84 45.1924L350.568 0.648438H364.488Z" fill="white"/>
<path d="M424.493 69.0004H409.037L395.693 43.6564H386.093V69.0004H372.749V15.3364C372.749 10.2164 373.933 6.50443 376.301 4.20044C378.669 1.83244 382.637 0.648438 388.205 0.648438H399.533C406.317 0.648438 411.693 2.72844 415.661 6.88844C419.693 10.9844 421.709 16.2004 421.709 22.5364C421.709 27.1444 420.493 31.1444 418.061 34.5364C415.693 37.8644 412.749 40.1684 409.229 41.4484L424.493 69.0004ZM398.669 32.5204C401.485 32.5204 403.789 31.5604 405.581 29.6404C407.437 27.6564 408.365 25.2244 408.365 22.3444C408.365 19.4004 407.469 17.0324 405.677 15.2404C403.949 13.4484 401.613 12.5524 398.669 12.5524H392.045C388.077 12.5524 386.093 14.5684 386.093 18.6004V32.5204H398.669Z" fill="white"/>
<path d="M485.77 0.648438V45.5764C485.77 53.0004 483.242 58.8564 478.186 63.1444C473.194 67.4324 467.018 69.5764 459.658 69.5764C452.298 69.5764 446.09 67.4324 441.034 63.1444C436.042 58.8564 433.546 53.0004 433.546 45.5764V0.648438H446.89V45.0964C446.89 49.3204 448.042 52.4884 450.346 54.6004C452.714 56.6484 455.818 57.6724 459.658 57.6724C463.498 57.6724 466.602 56.6484 468.97 54.6004C471.338 52.4884 472.522 49.3204 472.522 45.0964V0.648438H485.77Z" fill="white"/>
<path d="M550.183 28.2004L537.895 54.1204C536.103 57.5764 533.863 59.3044 531.175 59.3044C528.551 59.3044 526.343 57.4804 524.551 53.8324L512.071 28.2004V69.0004H498.727V0.648438H511.879L531.175 40.1044L550.375 0.648438H563.527V69.0004H550.183V28.2004Z" fill="white"/>
<path d="M364.488 96.6484L342.984 161.16C341.832 164.104 339.784 165.576 336.84 165.576C333.768 165.576 331.656 164.104 330.504 161.16L309.288 96.6484H323.112L336.84 141.192L350.568 96.6484H364.488Z" fill="white"/>
<path d="M424.493 165H409.037L395.693 139.656H386.093V165H372.749V111.336C372.749 106.216 373.933 102.504 376.301 100.2C378.669 97.8324 382.637 96.6484 388.205 96.6484H399.533C406.317 96.6484 411.693 98.7284 415.661 102.888C419.693 106.984 421.709 112.2 421.709 118.536C421.709 123.144 420.493 127.144 418.061 130.536C415.693 133.864 412.749 136.168 409.229 137.448L424.493 165ZM398.669 128.52C401.485 128.52 403.789 127.56 405.581 125.64C407.437 123.656 408.365 121.224 408.365 118.344C408.365 115.4 407.469 113.032 405.677 111.24C403.949 109.448 401.613 108.552 398.669 108.552H392.045C388.077 108.552 386.093 110.568 386.093 114.6V128.52H398.669Z" fill="white"/>
<path d="M485.77 96.6484V141.576C485.77 149 483.242 154.856 478.186 159.144C473.194 163.432 467.018 165.576 459.658 165.576C452.298 165.576 446.09 163.432 441.034 159.144C436.042 154.856 433.546 149 433.546 141.576V96.6484H446.89V141.096C446.89 145.32 448.042 148.488 450.346 150.6C452.714 152.648 455.818 153.672 459.658 153.672C463.498 153.672 466.602 152.648 468.97 150.6C471.338 148.488 472.522 145.32 472.522 141.096V96.6484H485.77Z" fill="white"/>
<path d="M550.183 124.2L537.895 150.12C536.103 153.576 533.863 155.304 531.175 155.304C528.551 155.304 526.343 153.48 524.551 149.832L512.071 124.2V165H498.727V96.6484H511.879L531.175 136.104L550.375 96.6484H563.527V165H550.183V124.2Z" fill="white"/>
</svg>
